<svg clip-rule="evenodd" fill-rule="evenodd" stroke-linejoin="round" stroke-miterlimit="2" version="1.1" viewBox="0 0 64 64" xmlns="http://www.w3.org/2000/svg">
 <g transform="matrix(8.33 0 0 8.33 -117 -93.3)" fill="#ffffff">
  <path d="m20.1 15.8 0.0567-0.333-0.862-0.142v-0.692-0.0383l0.843-0.227-0.085-0.322-0.805 0.215a1.5 1.5 0 0 0-0.787-0.962v-0.5h-0.333v0.372a1.47 1.47 0 0 0-0.667 0v-0.372h-0.333v0.5a1.5 1.5 0 0 0-0.785 0.97l-0.805-0.223-0.0767 0.322 0.833 0.227v0.0383 0.692l-0.86 0.142 0.0533 0.333 0.807-0.137a1.48 1.48 0 0 0 0.137 0.595l-0.755 0.757 0.237 0.237 0.698-0.7a1.5 1.5 0 0 0 2.37 0l0.698 0.7 0.237-0.237-0.757-0.757a1.48 1.48 0 0 0 0.138-0.595zm-2.47 0.987a1.17 1.17 0 0 1-1-1.15v-1h1zm-0.952-2.49a1.17 1.17 0 0 1 2.24 0zm2.28 1.33a1.17 1.17 0 0 1-1 1.15v-2.15h1z" fill="#ffffff" stroke-width=".167"/>
 </g>
</svg>
