<svg clip-rule="evenodd" fill-rule="evenodd" stroke-linejoin="round" stroke-miterlimit="2" version="1.1" viewBox="0 0 64 64" xmlns="http://www.w3.org/2000/svg">
 <g transform="matrix(.488 0 0 .488 2 2)" fill="#f3f4f4">
  <path d="m27.6 34.4-4.07 4.6 0.4 1.74h10.5c-2.14 12.4-3.74 23.5-6.81 40.7-3.67 21.9-5.78 27.3-7.03 29.3-1.1 1.95-2.68 2.96-4.82 2.96-2.35 0-6.6-1.86-8.88-3.97-0.82-0.56-1.79-0.42-2.82 0.26-2.06 1.74-4.06 4.42-4.06 6.82-0.12 3.24 4.21 6.06 8.34 6.06 3.64 0 9-2.28 14.6-7.64 7.71-7.31 13.5-17.3 18.3-39 3.1-13.8 4.56-22.8 6.74-35.5l13-1.18 2.82-5.17h-14.7c3.79-23.8 6.75-27.4 10.4-27.4 2.42 0 5.24 1.86 8.48 5.52 0.96 1.32 2.4 1.18 3.5 0.28 1.85-1.1 4.13-3.92 4.28-6.48 0.11-2.82-3.25-6.32-9.03-6.32-5.24 0-13.3 3.5-20 10.4-5.92 6.27-9.02 14.1-11.2 24zm41.7 16c4.04-5.38 6.46-7.17 7.71-7.17 1.29 0 2.32 1.27 4.53 8.41l3.78 12.2c-7.31 11.2-12.7 17.4-15.9 17.4-1.08 0-2.17-0.34-2.94-1.1-0.76-0.76-1.6-1.39-2.42-1.39-2.68 0-6 3.25-6.06 7.28-0.06 4.11 2.82 7.05 6.6 7.05 6.49 0 12-6.37 22.6-23.3l3.1 10.4c2.66 8.98 5.78 12.8 9.68 12.8 4.82 0 11.3-4.11 18.4-15.2l-2.96-3.38c-4.25 5.12-7.07 7.52-8.74 7.52-1.86 0-3.49-2.84-5.64-9.82l-4.53-14.7c2.68-3.95 5.32-7.27 7.64-9.92 2.76-3.15 4.89-4.49 6.34-4.49 1.22 0 2.28 0.52 2.94 1.25 0.87 0.96 1.39 1.41 2.42 1.41 2.33 0 5.93-2.96 6.06-6.88 0.12-3.64-2.14-6.74-6.06-6.74-5.92 0-11.1 5.1-21.2 20l-2.07-6.41c-2.9-9-4.82-13.6-8.86-13.6-4.7 0-11.2 5.78-17.5 14.9z" fill="#f3f4f4"/>
 </g>
</svg>
