<svg width="64" height="64" fill="#000000" version="1.1" viewBox="0 0 2.44 2.44" xmlns="http://www.w3.org/2000/svg">
 <g transform="matrix(.075 0 0 .075 .0764 .0764)" fill="#f3f4f4">
  <path d="m26.3 23.2c-0.812-1.42-2.07-2.38-3.4-2.74-1.05-0.287-2.14-0.199-3.08 0.334l-2.8-4.9c1.74-3.46 5.63-11.2 6.33-12.5 0.906-1.58-0.715-3.47-0.715-3.47l-7.36 12.9-7.36-12.9s-1.62 1.88-0.715 3.47c0.7 1.22 4.6 8.99 6.33 12.5l-2.8 4.9c-0.943-0.533-2.04-0.621-3.08-0.334-1.33 0.361-2.59 1.32-3.4 2.74-1.46 2.55-0.901 5.6 1.24 6.83 0.949 0.545 2.05 0.632 3.11 0.345 1.33-0.363 2.59-1.32 3.4-2.74 0.355-0.624 0.59-1.28 0.71-1.93v1e-3c1e-3 -5e-3 1e-3 -0.01 6e-3 -0.015 7e-3 -0.054 0.017-0.108 0.022-0.167 0.602-4.04 1.74-6.1 2.54-7.1 0.807 1 1.95 3.06 2.55 7.1 6e-3 0.059 0.016 0.113 0.021 0.167 4e-3 5e-3 4e-3 0.01 6e-3 0.015v-1e-3c0.121 0.648 0.355 1.3 0.709 1.93 0.812 1.41 2.07 2.37 3.4 2.74 1.06 0.287 2.16 0.2 3.11-0.345 2.14-1.22 2.7-4.28 1.24-6.83zm-16.4 3.24c-0.46 0.803-1.19 1.41-1.95 1.62-0.338 0.092-0.834 0.148-1.29-0.113-0.97-0.555-1.13-2.19-0.346-3.56 0.468-0.812 1.18-1.4 1.95-1.61 0.335-0.091 0.831-0.146 1.29 0.113 0.971 0.557 1.13 2.18 0.345 3.56zm14 1.5c-0.455 0.262-0.949 0.205-1.29 0.113-0.76-0.207-1.49-0.812-1.95-1.62-0.783-1.37-0.625-3 0.346-3.56 0.457-0.26 0.953-0.204 1.29-0.113 0.771 0.211 1.48 0.802 1.95 1.61 0.783 1.37 0.625 3-0.346 3.56z" fill="#f3f4f4"/>
 </g>
</svg>
