<svg width="96" height="96" version="1.1" viewBox="-16 -16 96 96" xmlns="http://www.w3.org/2000/svg">
 <path d="m72.2 32.2a40 40 0 0 1-40 40 40 40 0 0 1-40-40 40 40 0 0 1 40-40 40 40 0 0 1 40 40z" fill="none" stroke="#ffffff" stroke-linecap="round" stroke-linejoin="round" stroke-width="8"/>
 <g transform="matrix(.943 0 0 1.06 0 2.25)" fill="#363d3b" stroke-linecap="round" stroke-linejoin="round" stroke-width="4.71" style="font-variant-ligatures:discretionary-ligatures;font-variant-numeric:tabular-nums diagonal-fractions;paint-order:markers stroke fill" aria-label="W">
  <path d="m18.1 55-10.1-49.3h6.4l6.05 32.1q0.633 3.17 0.915 5.28 0-0.0704 1.34-5.21l8.73-32.2h4.86l8.8 32.1q0.845 3.17 1.13 4.79 0.282-1.83 0.915-4.86l6.69-32h6.26l-10.7 49.3h-4.86l-9.5-33.6q-1.06-3.87-1.27-4.86-0.352 1.9-1.2 4.86l-9.5 33.6z" fill="#ffffff"/>
 </g>
</svg>
